<svg xmlns="http://www.w3.org/2000/svg" width="256" height="256" viewBox="0 0 256 256">
  <rect width="256" height="256" rx="44" fill="#176b52"/>
  <path d="M28 104 C46 104 59 96 70 82 C86 107 102 124 128 130 C154 124 170 107 186 82 C197 96 210 104 228 104" fill="none" stroke="#ffffff" stroke-width="9" stroke-linecap="round" stroke-linejoin="round"/>
  <rect x="62" y="70" width="16" height="92" rx="5" fill="#ffffff"/>
  <rect x="178" y="70" width="16" height="92" rx="5" fill="#ffffff"/>
  <rect x="57" y="68" width="26" height="10" rx="5" fill="#ffffff"/>
  <rect x="173" y="68" width="26" height="10" rx="5" fill="#ffffff"/>
  <path d="M94 115 V150 M116 127 V150 M140 127 V150 M162 115 V150" stroke="#ffffff" stroke-width="6" stroke-linecap="round"/>
  <rect x="26" y="148" width="204" height="18" rx="7" fill="#ffffff"/>
  <rect x="46" y="170" width="164" height="10" rx="5" fill="#ddf2e9"/>
</svg>
